<svg width="22" height="41" viewBox="0 0 22 41" fill="none" xmlns="http://www.w3.org/2000/svg">
<path fill-rule="evenodd" clip-rule="evenodd" d="M13.714 0.618993C13.321 1.01199 13 2.37499 13 3.64799C13 5.26399 13.732 6.14599 15.428 6.57099C16.763 6.90599 18.814 6.87599 19.986 6.50399C21.58 5.99799 22.039 5.15799 21.808 3.16399C21.547 0.907993 20.959 0.453993 17.964 0.201993C16.02 0.0389934 14.107 0.225993 13.714 0.618993ZM8.01 13.484C6.826 15.4 4.764 17.827 3.429 18.878C2.093 19.928 1 21.061 1 21.394C1 21.727 1.908 22 3.017 22C4.972 22 4.957 22.151 2.517 26.967C1.133 29.698 0 33.073 0 34.467C0 35.86 0.9 37.9 2 39C3.323 40.323 5.333 41 7.941 41C10.109 41 12.169 40.535 12.52 39.967C12.871 39.4 13.555 37.552 14.04 35.861C14.842 33.063 14.737 32.836 12.864 33.325C11.733 33.621 10.175 33.621 9.404 33.325C8.632 33.028 8 32.363 8 31.846C8 31.328 10.219 26.201 12.93 20.452L17.861 9.99999H14.012C10.695 9.99999 9.865 10.482 8.01 13.484Z" fill="white"/>
</svg>
